normalP032_grf.mot
version=1
nRows=12
nColumns=19
inDegrees=yes
endheader
time	1_ground_force_vx	1_ground_force_vy	1_ground_force_vz	1_ground_force_px	1_ground_force_py	1_ground_force_pz	1_ground_torque_x	1_ground_torque_y	1_ground_torque_z	2_ground_force_vx	2_ground_force_vy	2_ground_force_vz	2_ground_force_px	2_ground_force_py	2_ground_force_pz	2_ground_torque_x	2_ground_torque_y	2_ground_torque_z
            1.767000	          -25.338028	          635.708500	           36.334925	            0.295680	            0.003658	           -0.361605	            0.042290	           -1.061020	           -0.060644	            0.057006	            0.279788	            0.050750	            0.905856	            0.001738	           -0.251009	            0.069383	           -0.008704	            0.048667
            1.768000	          -24.980418	          634.671260	           36.107458	            0.295774	            0.003659	           -0.361919	            0.042694	           -1.084714	           -0.061711	           -0.004178	            0.358376	            0.020490	            0.905856	            0.001738	           -0.251009	           -0.115104	           -0.010245	            0.069063
            1.769000	          -24.644528	          634.190524	           36.211945	            0.295903	            0.003659	           -0.361899	            0.042412	           -1.091418	           -0.062319	           -0.042520	            0.359894	            0.020531	            0.905856	            0.001738	           -0.251009	            0.019236	           -0.004374	           -0.013958
            1.770000	          -24.720820	          634.272273	           35.867602	            0.296071	            0.003658	           -0.361748	            0.045268	           -1.161452	           -0.065679	            0.026193	            0.119465	            0.027062	            0.905856	            0.001738	           -0.251009	           -0.031246	           -0.009693	            0.006876
            1.771000	          -24.437575	          634.271435	           36.012792	            0.296006	            0.003657	           -0.361644	            0.044685	           -1.159782	           -0.065850	           -0.027145	            0.359304	            0.005435	            0.905856	            0.001738	           -0.251009	           -0.014409	            0.005541	            0.069275
            1.772000	          -24.483159	          634.352142	           35.974778	            0.295977	            0.003657	           -0.361547	            0.046666	           -1.209097	           -0.068569	           -0.027436	            0.118949	            0.011816	            0.905856	            0.001738	           -0.251009	            0.002126	           -0.010131	            0.214858
            1.773000	          -24.347826	          633.074284	           35.998965	            0.296235	            0.003658	           -0.361824	            0.047611	           -1.237950	           -0.070394	           -0.042230	            0.520087	            0.029319	            0.905856	            0.001738	           -0.251009	            0.019216	           -0.008478	           -0.096947
            1.774000	          -24.272117	          632.595742	           35.988661	            0.296368	            0.003657	           -0.361747	            0.049634	           -1.293587	           -0.073593	           -0.027397	            0.120120	            0.004161	            0.905856	            0.001738	           -0.251009	            0.002261	           -0.016473	           -0.034565
            1.775000	          -24.095003	          633.073363	           36.013706	            0.296372	            0.003657	           -0.361767	            0.050161	           -1.317933	           -0.074973	           -0.027086	            0.359532	           -0.002170	            0.905856	            0.001738	           -0.251009	           -0.014438	           -0.004351	            0.027729
            1.776000	          -23.805003	          632.514193	           36.025925	            0.296537	            0.003657	           -0.361733	            0.051002	           -1.355159	           -0.077185	           -0.042847	            0.040023	            0.011661	            0.905856	            0.001738	           -0.251009	            0.019066	            0.001172	            0.027805
            1.777000	          -23.491705	          632.195034	           35.863187	            0.296669	            0.003657	           -0.361788	            0.051762	           -1.392989	           -0.079022	           -0.012338	           -0.120298	            0.003165	            0.905856	            0.001738	           -0.251009	           -0.014567	           -0.013118	            0.069252
            1.778000	          -23.133209	          631.558397	           35.683514	            0.296668	            0.003656	           -0.361634	            0.052395	           -1.430434	           -0.080821	           -0.034896	            0.199932	            0.004966	            0.905856	            0.001738	           -0.251009	           -0.048036	           -0.005799	           -0.096873
